# xmcd CD database file
#
# Track frame offsets:
#	151
#	30944
#	54010
#	74373
#	96572
#	114512
#	137904
#	152625
#	166645
#	188431
#
# Disc length: 2672 seconds
#
# Revision: 0
# Processed by: cddbd v1.5PL3 Copyright (c) Steve Scherf et al.
# Submitted via: CDex 1.51
#
DISCID=740a6e0a
DTITLE=BRUNO DE FILIPPI - I LOVE PARIS
DYEAR=2000
DGENRE=Jazz
TTITLE0=J'AI DOUX AMOUR
TTITLE1=LE RIFIFI
TTITLE2=QUEL TEMPS FAIT-IL A PARIS
TTITLE3=QUE RESTE-T-LI DE NOS AMOURS
TTITLE4=SOUS LE CIEL DE PARIS
TTITLE5=JE SUIS SEUL CE SOIR
TTITLE6=LILLI A PARIS
TTITLE7=MAM'SELLE
TTITLE8=I LOVE PARIS
TTITLE9=HYMN A L' AMOUR
EXTD=YEAR: 2000
EXTT0=
EXTT1=
EXTT2=
EXTT3=
EXTT4=
EXTT5=
EXTT6=
EXTT7=
EXTT8=
EXTT9=
PLAYORDER=
